{"accessors" : [{"bufferView" : 0, "byteOffset" : 0, "componentType" : 5123, "count" : 59160, "type" : "SCALAR", "max" : [59159], "min" : [0]}, {"bufferView" : 1, "byteOffset" : 0, "componentType" : 5126, "count" : 59160, "type" : "VEC3", "max" : [1.257848858833313, 0.6106253266334534, 0.9013448357582092], "min" : [-1.257848858833313, -4.097746849060059, -1.3357892036437988]}, {"bufferView" : 0, "byteOffset" : 118320, "componentType" : 5123, "count" : 1692, "type" : "SCALAR", "max" : [1691], "min" : [0]}, {"bufferView" : 2, "byteOffset" : 0, "componentType" : 5126, "count" : 1692, "type" : "VEC3", "max" : [0.35449478030204773, 0.3111580014228821, 0.21459050476551056], "min" : [-0.35449478030204773, 0.19664175808429718, -0.019696040078997612]}, {"bufferView" : 0, "byteOffset" : 121704, "componentType" : 5123, "count" : 792, "type" : "SCALAR", "max" : [791], "min" : [0]}, {"bufferView" : 3, "byteOffset" : 0, "componentType" : 5126, "count" : 792, "type" : "VEC3", "max" : [0.2631876766681671, 0.30961817502975464, 0.15145446360111237], "min" : [-0.2631876766681671, 0.010204480029642582, -0.23050783574581146]}, {"bufferView" : 0, "byteOffset" : 123288, "componentType" : 5123, "count" : 2112, "type" : "SCALAR", "max" : [2111], "min" : [0]}, {"bufferView" : 4, "byteOffset" : 0, "componentType" : 5126, "count" : 2112, "type" : "VEC3", "max" : [1.0552455186843872, -3.9464662075042725, 0.2648110091686249], "min" : [-1.0552455186843872, -4.05731725692749, 0.06680098921060562]}, {"bufferView" : 0, "byteOffset" : 127512, "componentType" : 5123, "count" : 1644, "type" : "SCALAR", "max" : [1643], "min" : [0]}, {"bufferView" : 5, "byteOffset" : 0, "componentType" : 5126, "count" : 1644, "type" : "VEC3", "max" : [0.8446446657180786, -3.941317081451416, 0.4301988482475281], "min" : [-0.8446446657180786, -4.054784297943115, 0.18213176727294922]}, {"bufferView" : 0, "byteOffset" : 130800, "componentType" : 5123, "count" : 1848, "type" : "SCALAR", "max" : [1847], "min" : [0]}, {"bufferView" : 6, "byteOffset" : 0, "componentType" : 5126, "count" : 1848, "type" : "VEC3", "max" : [0.5625841617584229, -3.9636311531066895, 0.42122113704681396], "min" : [-0.5625841617584229, -4.065957069396973, 0.19209645688533783]}, {"bufferView" : 0, "byteOffset" : 134496, "componentType" : 5123, "count" : 22416, "type" : "SCALAR", "max" : [22415], "min" : [0]}, {"bufferView" : 7, "byteOffset" : 0, "componentType" : 5126, "count" : 22416, "type" : "VEC3", "max" : [1.8983498811721802, -0.5538485646247864, 0.11875931918621063], "min" : [-1.8983498811721802, -2.864825963973999, -0.8711957335472107]}, {"bufferView" : 0, "byteOffset" : 179328, "componentType" : 5123, "count" : 1992, "type" : "SCALAR", "max" : [1991], "min" : [0]}, {"bufferView" : 8, "byteOffset" : 0, "componentType" : 5126, "count" : 1992, "type" : "VEC3", "max" : [1.6233694553375244, -2.7987489700317383, -0.06919816881418228], "min" : [-1.6233694553375244, -2.8966314792633057, -0.17517496645450592]}, {"bufferView" : 0, "byteOffset" : 183312, "componentType" : 5123, "count" : 1644, "type" : "SCALAR", "max" : [1643], "min" : [0]}, {"bufferView" : 9, "byteOffset" : 0, "componentType" : 5126, "count" : 1644, "type" : "VEC3", "max" : [1.448869228363037, -2.5150294303894043, -0.0464990995824337], "min" : [-1.448869228363037, -2.6162636280059814, -0.239540696144104]}, {"bufferView" : 0, "byteOffset" : 186600, "componentType" : 5123, "count" : 1848, "type" : "SCALAR", "max" : [1847], "min" : [0]}, {"bufferView" : 10, "byteOffset" : 0, "componentType" : 5126, "count" : 1848, "type" : "VEC3", "max" : [1.6225647926330566, -2.799027442932129, -0.30548372864723206], "min" : [-1.6225647926330566, -2.8964684009552, -0.4112100899219513]}, {"bufferView" : 0, "byteOffset" : 190296, "componentType" : 5123, "count" : 1908, "type" : "SCALAR", "max" : [1907], "min" : [0]}, {"bufferView" : 11, "byteOffset" : 0, "componentType" : 5126, "count" : 1908, "type" : "VEC3", "max" : [1.5710896253585815, -2.684102773666382, -0.49792712926864624], "min" : [-1.5710896253585815, -2.774085521697998, -0.5797200798988342]}], "asset" : {"generator" : "Aspose.3D 20.9.1", "version" : "2.0"}, "buffers" : [{"uri" : "buffer.bin", "byteLength" : 1358832}], "bufferViews" : [{"buffer" : 0, "byteOffset" : 0, "byteLength" : 194112, "target" : 34963}, {"buffer" : 0, "byteOffset" : 194116, "byteLength" : 709920, "byteStride" : 12, "target" : 34962}, {"buffer" : 0, "byteOffset" : 904040, "byteLength" : 20304, "byteStride" : 12, "target" : 34962}, {"buffer" : 0, "byteOffset" : 924348, "byteLength" : 9504, "byteStride" : 12, "target" : 34962}, {"buffer" : 0, "byteOffset" : 933856, "byteLength" : 25344, "byteStride" : 12, "target" : 34962}, {"buffer" : 0, "byteOffset" : 959204, "byteLength" : 19728, "byteStride" : 12, "target" : 34962}, {"buffer" : 0, "byteOffset" : 978936, "byteLength" : 22176, "byteStride" : 12, "target" : 34962}, {"buffer" : 0, "byteOffset" : 1001116, "byteLength" : 268992, "byteStride" : 12, "target" : 34962}, {"buffer" : 0, "byteOffset" : 1270112, "byteLength" : 23904, "byteStride" : 12, "target" : 34962}, {"buffer" : 0, "byteOffset" : 1294020, "byteLength" : 19728, "byteStride" : 12, "target" : 34962}, {"buffer" : 0, "byteOffset" : 1313752, "byteLength" : 22176, "byteStride" : 12, "target" : 34962}, {"buffer" : 0, "byteOffset" : 1335932, "byteLength" : 22896, "byteStride" : 12, "target" : 34962}], "meshes" : [{"primitives" : [{"attributes" : {"POSITION" : 1}, "indices" : 0, "mode" : 4}]}, {"primitives" : [{"attributes" : {"POSITION" : 3}, "indices" : 2, "mode" : 4}]}, {"primitives" : [{"attributes" : {"POSITION" : 5}, "indices" : 4, "mode" : 4}]}, {"primitives" : [{"attributes" : {"POSITION" : 7}, "indices" : 6, "mode" : 4}]}, {"primitives" : [{"attributes" : {"POSITION" : 9}, "indices" : 8, "mode" : 4}]}, {"primitives" : [{"attributes" : {"POSITION" : 11}, "indices" : 10, "mode" : 4}]}, {"primitives" : [{"attributes" : {"POSITION" : 13}, "indices" : 12, "mode" : 4}]}, {"primitives" : [{"attributes" : {"POSITION" : 15}, "indices" : 14, "mode" : 4}]}, {"primitives" : [{"attributes" : {"POSITION" : 17}, "indices" : 16, "mode" : 4}]}, {"primitives" : [{"attributes" : {"POSITION" : 19}, "indices" : 18, "mode" : 4}]}, {"primitives" : [{"attributes" : {"POSITION" : 21}, "indices" : 20, "mode" : 4}]}], "nodes" : [{"mesh" : 0, "name" : "Group21461"}, {"mesh" : 1, "name" : "Group47428"}, {"mesh" : 2, "name" : "Group47437"}, {"mesh" : 3, "name" : "Group31626"}, {"mesh" : 4, "name" : "Group31627"}, {"mesh" : 5, "name" : "Group31628"}, {"mesh" : 6, "name" : "Group31760"}, {"mesh" : 7, "name" : "Group31772"}, {"mesh" : 8, "name" : "Group31776"}, {"mesh" : 9, "name" : "Group31777"}, {"mesh" : 10, "name" : "Group31778"}], "scene" : 0, "scenes" : [{"nodes" : [0, 1, 2, 3, 4, 5, 6, 7, 8, 9, 10]}]}